<svg width="579" height="279" viewBox="0 0 579 279" fill="none" xmlns="http://www.w3.org/2000/svg">
<ellipse cx="289.5" cy="139.267" rx="289.5" ry="139.267" fill="#F9F5FF"/>
<g clip-path="url(#clip0_84_991)">
<path d="M433.06 218.96H428.351C412.373 218.96 399.419 231.898 399.419 247.857L390 252.267C390 268.226 396.521 275.267 412.5 275.267L449 270.267C464.979 270.267 461.992 263.835 461.992 247.876V247.857C461.992 231.898 449.039 218.96 433.06 218.96Z" fill="#261742"/>
<path d="M415.987 135.444C428.002 129.754 439.997 131.36 452.012 130.219C452.777 130.01 453.586 130.023 454.344 130.256C455.102 130.489 455.779 130.932 456.294 131.535C456.933 132.681 457.359 133.934 457.554 135.231C461.139 151.122 464.86 164.264 466.41 181.683C468.247 199.662 467.022 217.822 462.786 235.392C462.47 236.862 461.955 238.281 461.255 239.612C460.665 240.564 459.895 241.392 458.988 242.05C454.789 245.477 449.993 248.102 444.842 249.792C440.852 251.057 436.788 252.072 432.672 252.831C418.158 255.792 403.217 258.637 390.039 252.366C389.151 252.033 388.405 251.404 387.927 250.586C387.395 249.302 387.112 247.93 387.094 246.541C385.505 228.502 389.884 209.283 393.237 190.412C397.115 170.806 404.847 152.162 415.987 135.56" fill="#B196ED"/>
<path d="M216.584 249.231H171.123C163.021 249.231 156.453 255.791 156.453 263.883C156.453 271.974 163.021 278.534 171.123 278.534H216.584C224.686 278.534 231.254 271.974 231.254 263.883C231.254 255.791 224.686 249.231 216.584 249.231Z" fill="#261742"/>
<path d="M195.073 237.521H149.611C141.509 237.521 134.941 244.081 134.941 252.173C134.941 260.265 141.509 266.824 149.611 266.824H195.073C203.174 266.824 209.742 260.265 209.742 252.173C209.742 244.081 203.174 237.521 195.073 237.521Z" fill="#073054" stroke="#073054" stroke-width="1.91268" stroke-miterlimit="10"/>
<path d="M305.202 243.037H252.628C243.253 243.037 235.652 250.624 235.652 259.983C235.652 269.341 243.253 276.928 252.628 276.928H305.202C314.577 276.928 322.177 269.341 322.177 259.983C322.177 250.624 314.577 243.037 305.202 243.037Z" fill="#261742"/>
<path d="M420.833 102.715C424.835 99.0113 429.118 95.6206 433.642 92.5735C434.012 92.2371 434.498 92.0568 434.998 92.0703C435.948 92.2251 436.394 93.7154 436.646 94.9541L443.118 126.696C443.332 127.416 443.332 128.182 443.118 128.902C442.73 129.754 441.839 129.793 441.18 129.889C438.871 130.496 436.709 131.563 434.824 133.025C432.28 134.607 429.426 135.626 426.454 136.014C423.482 136.401 420.462 136.147 417.597 135.27C417.314 135.214 417.046 135.104 416.806 134.944C416.567 134.785 416.361 134.58 416.201 134.341C415.918 133.737 415.785 133.073 415.814 132.406C415.52 126.824 415.643 121.227 416.182 115.664L420.833 102.715Z" fill="#FF8868"/>
<path d="M403.585 138.638L448.563 123.502C448.563 123.502 471.042 194.302 435.347 190.876C399.652 187.451 403.585 138.638 403.585 138.638Z" fill="#6F42C1"/>
<path d="M379.749 147.87C382.791 141.831 389.438 143.418 410.231 134.999C431.024 126.58 436.896 119.922 446.546 122.322C451.934 123.677 457.553 127.625 457.282 131.844C457.108 134.535 454.879 136.044 448.252 142.257C440.81 149.225 440.5 150.135 437.051 153.289C428.408 161.031 409.534 177.889 394.554 173.825C383.353 170.767 375.486 156.444 379.749 147.87Z" fill="#F2F2F2"/>
<path d="M350.102 200.805C360.159 199.973 367.542 199.276 371.553 198.618C387.25 196.083 375.72 198.618 379.305 198.618C380.561 198.478 381.823 198.825 382.832 199.586C383.48 200.221 383.885 201.064 383.975 201.967C385.351 210.483 409.167 262.857 392.211 276.308C391.474 276.889 391.358 276.85 370.352 278.244C370.352 278.244 348.202 279.773 332.583 274.082C331.885 273.875 331.269 273.456 330.82 272.882C330.365 272.093 330.088 271.215 330.006 270.308C328.165 258.812 331.149 246.754 333.32 234.908C337.196 213.115 343.319 203.128 350.14 200.883C355.334 199.18 360.663 200.883 364.383 202.818" fill="#6F42C1"/>
<path d="M150.27 156.754C162.13 152.167 174.106 153.928 186.043 153.135C186.802 152.962 187.592 152.983 188.341 153.196C189.089 153.41 189.772 153.808 190.326 154.354C190.988 155.317 191.449 156.403 191.682 157.547C195.558 171.251 199.627 182.709 201.585 197.515C203.826 212.85 203.023 228.477 199.22 243.502C198.937 244.755 198.46 245.957 197.806 247.063C197.209 247.883 196.459 248.58 195.597 249.115C191.344 251.974 186.631 254.082 181.664 255.347C177.69 256.329 173.666 257.098 169.61 257.65C155.212 259.876 140.407 262.044 127.191 256.276C126.328 255.989 125.581 255.432 125.059 254.689C124.512 253.61 124.189 252.432 124.11 251.225C122.172 235.741 126.047 219.347 128.935 203.244C132.422 186.346 139.711 170.462 150.251 156.793" fill="#6F42C1"/>
<path d="M358.513 153.309C380.371 149.844 382.619 154.218 393.394 154.412C394.246 154.412 396.611 154.412 397.444 156.347C397.818 157.646 397.851 159.019 397.541 160.335C395.971 171.773 396.804 183.212 395.196 194.631C393.878 203.98 393.258 218.496 396.766 240.792C359.792 249.676 332.216 245.747 330.511 234.986C330.104 227.282 330.253 219.559 330.956 211.876C331.867 201.463 333.611 202.025 338.572 181.644C342.448 166.16 342.739 160.973 346.924 156.986C348.494 155.593 350.102 154.644 358.513 153.309Z" fill="#F2F2F2"/>
<path d="M365.333 128.128C370.473 126.14 375.744 124.504 381.107 123.231C381.617 123.067 382.166 123.067 382.676 123.231C383.684 123.58 383.878 124.877 383.917 125.922L384.982 152.593C385.035 152.897 385.024 153.208 384.951 153.508C384.878 153.808 384.743 154.089 384.556 154.335C383.975 154.935 383.006 154.741 382.192 154.625C379.671 154.539 377.153 154.853 374.731 155.554C368.269 156.788 361.581 155.927 355.643 153.096C355.09 152.893 354.619 152.512 354.306 152.012C354.15 151.501 354.15 150.955 354.306 150.444C355.027 145.944 356.202 141.528 357.814 137.264L365.333 128.128Z" fill="#FF8868"/>
<path d="M215.363 268.121L192.884 270.56C186.566 269.587 180.201 268.941 173.816 268.624C163.797 268.102 160.638 268.76 157.673 266.689C154.709 264.618 150.6 259.121 154.263 239.825L160.193 186.831C160.193 182.725 161.826 178.786 164.733 175.883C167.641 172.979 171.584 171.347 175.695 171.347H222.397C226.509 171.347 230.452 172.979 233.36 175.883C236.267 178.786 237.9 182.725 237.9 186.831L247.589 237.308C249.527 242.167 252.337 251.166 248.074 256.354C245.826 259.083 242.687 259.431 235.865 261.231C228.894 263.097 222.046 265.398 215.363 268.121Z" fill="#F9F6FF"/>
<path d="M190.772 123.483C187.981 114.309 174.591 110.148 165.58 110.148C159.282 110.148 147.752 112.083 145.678 119.051C145.011 121.918 144.964 124.894 145.542 127.78C146.104 131.723 147.309 135.548 149.108 139.102C153.177 147.657 155.6 152.806 159.592 154.393C170.289 158.651 195.267 138.193 190.772 123.483Z" fill="#B196ED"/>
<path d="M395.426 137.051C401.957 130.915 405.968 119.225 402.015 110.457C396.201 97.6832 376.978 98.8444 374.594 88.4703C373.238 82.6639 378.044 76.451 382.598 71.9994C350.468 87.4832 336.923 113.593 343.453 127.586C350.1 141.948 381.105 150.483 395.426 137.051Z" fill="#6F42C1"/>
<path d="M186.314 87.4638C186.103 87.4638 185.901 87.5474 185.752 87.6963C185.603 87.8451 185.52 88.0469 185.52 88.2574C185.52 88.4678 185.603 88.6697 185.752 88.8185C185.901 88.9673 186.103 89.0509 186.314 89.0509C186.525 89.0509 186.727 88.9673 186.876 88.8185C187.025 88.6697 187.109 88.4678 187.109 88.2574C187.109 88.0469 187.025 87.8451 186.876 87.6963C186.727 87.5474 186.525 87.4638 186.314 87.4638Z" fill="#A05E38"/>
<path d="M165.502 168.309C164.534 166.49 163.307 164.821 161.859 163.354C160.233 161.766 158.099 160.8 155.832 160.625C154.573 160.625 153.332 160.78 152.092 160.625C151.55 160.533 150.993 160.593 150.484 160.799C150.188 161.032 149.983 161.361 149.902 161.728L146.976 170.96C146.375 172.896 145.91 175.102 147.596 176.418C148.927 177.24 150.509 177.556 152.053 177.309C153.612 177.074 155.192 177.022 156.762 177.154" fill="#FF8868"/>
<path d="M403.432 145.799C376.651 146.612 381.282 144.599 362.524 147.56C357.273 148.393 334.406 148.857 329.271 149.999C322.433 145.129 315.036 141.094 307.237 137.98C303.769 136.586 299.002 135.522 296.482 137.786C297.217 136.929 297.866 136.002 298.42 135.018C298.575 134.689 299.234 134.748 299.505 135.018C299.616 135.155 299.696 135.314 299.74 135.485C299.783 135.655 299.789 135.833 299.757 136.006L299.331 144.715C299.214 145.763 299.273 146.822 299.505 147.851C299.92 149.069 300.528 150.213 301.308 151.238C305.009 156.793 306.966 164.225 311.423 169.296C315.299 173.631 324.368 175.915 330.976 177.831C345.626 182.089 362.195 178.799 375.546 172.76C379.984 170.825 384.209 168.464 388.821 166.683C397.405 163.393 404.963 157.276 414.42 155.98C412.365 151.102 411.396 151.083 407.753 146.806C407.26 146.109 406.592 145.555 405.815 145.199C405.41 145.008 404.951 144.964 404.516 145.073C404.082 145.183 403.699 145.439 403.432 145.799Z" fill="#B196ED"/>
<path d="M312.701 134.844C338.048 143.477 363.996 152.264 390.874 152.38C387.213 158.987 381.557 164.27 374.712 167.476C370.514 169.341 366.101 170.681 361.574 171.464C345.16 174.696 326.886 174.057 313.283 164.612" fill="#B196ED"/>
<path d="M275.242 117.483C280.125 110.186 285.726 109.896 290.028 106.199C290.466 105.794 291.039 105.566 291.636 105.561C292.818 105.561 293.574 107.051 293.903 108.251C297.417 118.573 300.938 128.896 304.465 139.218C304.789 139.908 304.851 140.693 304.639 141.425C304.232 142.315 303.147 142.451 302.255 142.625C299.561 143.469 297.035 144.779 294.795 146.496C288.556 150.282 281.172 151.73 273.963 150.58C273.297 150.535 272.667 150.262 272.18 149.806C271.805 149.268 271.584 148.639 271.541 147.986C270.695 142.461 270.352 136.87 270.514 131.283C270.925 126.364 272.55 121.623 275.242 117.483Z" fill="#FF8868"/>
<path d="M326.692 93.4832C331.827 98.8831 337.312 105.29 336.498 112.586C335.839 118.393 330.955 123.231 325.355 125.341C319.593 127.151 313.482 127.569 307.527 126.56C299.444 125.6 291.51 123.65 283.905 120.754C281.802 119.714 279.463 119.247 277.122 119.399C271.909 120.27 270.359 126.715 266.968 130.683C265.187 132.697 262.802 134.081 260.168 134.629C257.534 135.177 254.794 134.858 252.356 133.722C249.989 132.488 248.173 130.409 247.271 127.898C246.37 125.387 246.449 122.629 247.493 120.173C248.534 118.65 249.344 116.98 249.895 115.219C250.322 112.586 248.5 110.167 247.086 107.883C245.074 104.583 243.756 100.908 243.21 97.0831C242.421 92.8526 243.288 88.4812 245.632 84.8703C246.877 83.0925 248.672 81.7719 250.74 81.1111C252.809 80.4503 255.038 80.4858 257.085 81.2122C261.077 82.8961 262.898 88.7412 259.798 91.7219C261.484 87.5219 262.181 82.9929 263.46 78.6574C264.482 74.1726 266.872 70.1151 270.301 67.0446C273.905 64.2381 279.448 63.4059 283.129 66.1736C286.811 68.9413 287.005 75.5413 282.858 77.5348C282.199 74.0897 283.691 70.6445 285.145 67.4704C288.284 60.6188 291.54 53.6123 296.985 48.3478C302.43 43.0834 310.686 39.9479 317.933 42.5414C327.448 45.8511 331.207 59.4575 324.657 66.9091L331.285 67.8381C334.619 68.8219 337.75 70.3952 340.528 72.4832C341.888 73.529 342.938 74.9241 343.566 76.5194C344.194 78.1147 344.377 79.8505 344.094 81.5413C342.156 88.838 330.742 88.7025 326.44 94.9348" fill="#B196ED"/>
<path d="M271.696 176.96L267.568 154.915L271.696 176.96Z" fill="#FE4238"/>
<path d="M266.774 137.941C281.075 132.135 295.531 134.07 309.929 133.141C310.86 132.897 311.837 132.901 312.766 133.153C313.694 133.404 314.54 133.894 315.22 134.573C315.993 135.792 316.532 137.144 316.809 138.56C321.459 155.67 326.207 169.915 328.436 188.476C330.664 207.038 330.374 227.186 325.258 245.979C324.912 247.551 324.324 249.06 323.514 250.45C322.793 251.47 321.886 252.343 320.839 253.025C315.734 256.624 310.034 259.297 304 260.921C299.208 262.185 294.349 263.18 289.446 263.902C272.006 266.766 254.216 269.592 238.326 262.508C237.289 262.142 236.389 261.467 235.749 260.573C235.103 259.214 234.734 257.74 234.663 256.237C232.357 236.883 237.202 216.367 240.826 196.238C245.1 175.185 253.959 155.329 266.774 138.077" fill="#6F42C1"/>
<path d="M332.157 130.199C332.928 130.199 333.667 129.893 334.212 129.349C334.757 128.804 335.064 128.066 335.064 127.296C335.064 126.526 334.757 125.788 334.212 125.243C333.667 124.699 332.928 124.393 332.157 124.393C331.386 124.393 330.646 124.699 330.101 125.243C329.556 125.788 329.25 126.526 329.25 127.296C329.25 128.066 329.556 128.804 330.101 129.349C330.646 129.893 331.386 130.199 332.157 130.199Z" fill="#CEB8FF"/>
<path d="M242.241 178.934C238.662 185.66 236.717 193.132 236.563 200.747C236.423 202.489 236.695 204.239 237.358 205.857C238.193 207.301 239.329 208.549 240.691 209.515C258.131 223.315 281.637 226.102 303.845 226.508C305.086 226.605 306.333 226.473 307.527 226.121C309.052 225.465 310.385 224.432 311.402 223.121C316.876 216.831 320.966 209.464 323.41 201.496C325.853 193.528 326.595 185.136 325.587 176.864C325.203 178.419 324.484 179.873 323.48 181.123C322.476 182.373 321.211 183.39 319.774 184.102C316.852 185.487 313.711 186.351 310.492 186.657C291.545 189.271 272.246 187.191 254.294 180.599L242.241 178.934Z" fill="#B196ED"/>
<path d="M335.627 187.392C335.061 184.754 334.284 182.165 333.301 179.651C332.294 177.347 330.937 175.547 329.426 175.354C328.631 175.354 327.817 175.605 327.023 175.489C326.674 175.489 326.286 175.315 325.996 175.76C325.784 176.217 325.659 176.709 325.627 177.212L323.69 191.651C323.302 194.573 323.011 198.154 324.096 200.244C324.321 200.782 324.734 201.221 325.258 201.477C325.782 201.733 326.382 201.791 326.945 201.638C327.899 201.235 328.95 201.12 329.968 201.309" fill="#FF8868"/>
<path d="M163.158 154.702C162.624 152.608 161.823 150.592 160.774 148.702C159.723 146.801 157.982 145.375 155.91 144.715C154.825 144.444 153.682 144.464 152.597 144.173C152.134 144.001 151.625 144.001 151.163 144.173C150.851 144.39 150.619 144.703 150.504 145.064L146.415 154.489C145.582 156.425 144.787 158.786 146.066 160.509C146.539 161.045 147.121 161.475 147.772 161.772C148.423 162.069 149.129 162.225 149.845 162.231C151.26 162.213 152.67 162.402 154.031 162.793" fill="#FF8868"/>
<path d="M404.496 149.031C405.045 147.157 405.846 145.366 406.88 143.709C408.014 141.979 409.745 140.726 411.744 140.186C412.829 139.954 413.972 139.973 415.038 139.722C415.509 139.559 416.02 139.559 416.491 139.722C416.798 139.9 417.032 140.181 417.15 140.515L421.239 148.877C422.072 150.56 422.847 152.747 421.588 154.199C421.089 154.687 420.498 155.072 419.85 155.331C419.201 155.59 418.508 155.719 417.809 155.709C416.397 155.705 414.991 155.88 413.623 156.231" fill="#FF8868"/>
<path d="M253.984 180.638C253.984 180.638 251.542 202.605 244.295 212.128" stroke="white" stroke-width="11.4761" stroke-miterlimit="10"/>
<path d="M269.622 185.031C269.622 185.031 263.266 208.954 258.383 219.212" stroke="white" stroke-width="11.4761" stroke-miterlimit="10"/>
<path d="M180.657 126.328C182.285 115.819 183.583 107.399 188.97 101.38C196.004 93.5412 209.841 90.038 217.321 95.9606C229.645 105.754 225.401 141.715 224.433 144.889C224.001 145.801 223.856 146.823 224.019 147.818C224.182 148.814 224.644 149.736 225.343 150.464L243.268 173.283C245.943 176.348 248.102 179.825 249.663 183.58C250.449 185.508 250.789 187.588 250.658 189.666C250.528 191.744 249.929 193.765 248.908 195.58C245.574 200.612 238.346 200.573 233.676 197.07C235.83 204.571 237.232 212.266 237.862 220.044C238.123 222.971 237.787 225.921 236.874 228.715C236.032 231.12 234.714 233.332 232.998 235.218C230.663 237.743 227.842 239.77 224.704 241.179C220.956 243.337 216.784 244.658 212.476 245.05C206.665 245.551 200.885 243.797 196.334 240.154C187.323 232.702 185.85 220.605 185.54 217.373C182.834 219.65 179.388 220.862 175.851 220.779C171.872 220.47 168.165 218.64 165.503 215.67C163.813 214.076 162.459 212.161 161.52 210.037C160.582 207.913 160.078 205.623 160.038 203.302C160.212 198.56 163.778 193.876 168.061 194.089C158.643 190.644 152.248 182.805 152.345 175.102C152.461 165.425 162.867 158.496 165.348 156.851C170.909 153.154 172.498 154.722 175.541 151.509C180.463 146.283 178.603 139.625 180.657 126.328Z" fill="#6F42C1"/>
<path d="M168.584 147.193C195.365 148.122 190.734 145.838 209.492 149.128C214.743 150.057 237.707 150.638 242.726 151.993C249.495 146.563 256.924 142.011 264.837 138.444C268.305 136.877 273.886 135.444 273.712 135.096C273.538 134.748 272.355 136.083 272.375 136.218C272.549 138.289 269.875 160.722 267.24 167.825C263.538 177.851 251.214 180.909 241.156 183.309C220.576 188.418 202.535 180.618 196.586 177.502C192.148 175.238 187.924 172.625 183.312 170.631C174.727 166.915 167.169 160.025 157.693 158.554C158.203 157.039 158.852 155.575 159.631 154.18C161.317 151.47 162.228 149.438 164.282 148.199C165.592 147.465 167.084 147.116 168.584 147.193Z" fill="#B196ED"/>
<path d="M150.503 112.219C151.298 111.948 153.914 117.115 153.546 117.348C153.178 117.58 147.732 103.238 135.33 98.2831C134.787 98.0702 122.695 93.3283 115.952 99.7154C112.076 103.335 110.913 109.025 111.417 114.251C112.219 119.456 113.631 124.549 115.622 129.425C117.031 132.828 117.622 136.514 117.347 140.186C116.3 147.077 110.099 151.993 103.995 155.322C101.754 156.438 99.6688 157.843 97.794 159.502C95.8201 161.582 94.6126 164.271 94.3697 167.126C94.1267 169.982 94.8627 172.835 96.4569 175.218C98.1902 177.497 100.647 179.121 103.424 179.824C106.201 180.527 109.136 180.268 111.747 179.089C107.096 181.896 107.6 189.367 111.417 193.218C115.235 197.07 120.932 198.231 126.319 199.025C127.694 199.305 129.111 199.305 130.485 199.025C133.605 198.173 134.536 194.089 135.253 191.883C138.004 183.367 140.601 183.947 143.43 176.399C146.146 168.556 146.721 160.132 145.097 151.993C142.752 138.444 136.415 135.406 137.869 124.702C138.469 120.386 140.291 115.025 143.198 114.502C146.104 113.98 148.566 118.006 149.922 117.154C151.279 116.302 149.883 112.451 150.503 112.219Z" fill="#B196ED"/>
<path d="M413.237 59.5736C413.237 59.5736 406.591 70.78 413.237 76.3929C415.815 78.58 416.377 80.2639 416.125 81.4058C415.873 82.5477 413.237 84.038 413.237 84.038C413.237 84.038 412.307 88.5671 412.075 89.8445C411.5 93.752 411.9 97.7407 413.237 101.457C413.237 101.457 401.998 123.386 416.299 127.973V113.109C416.299 113.109 437.732 127.393 447.944 106.49C458.157 85.5864 450.502 68.7478 436.705 68.2446C428.185 67.7874 420.004 64.7645 413.237 59.5736Z" fill="#B196ED"/>
<path d="M383.568 85.3155C383.568 85.3155 374.13 90.3864 377.231 95.8638C380.331 101.341 385.912 97.4702 385.912 97.4702C385.912 97.4702 377.231 92.2057 383.568 85.3155Z" fill="#6F42C1"/>
<path d="M388.47 92.167C388.47 92.167 379.013 97.238 382.133 102.599C385.253 107.961 390.815 104.206 390.815 104.206C390.815 104.206 382.075 99.0573 388.47 92.167Z" fill="#6F42C1"/>
<path d="M187.5 79.1191L176 75.1191C178.333 72.4525 182.9 68.0191 182.5 71.6191C182.1 75.2191 185.667 78.1191 187.5 79.1191Z" fill="white"/>
<path d="M357 67.1191L368.5 63.1191C366.167 60.4525 361.6 56.0191 362 59.6191C362.4 63.2191 358.833 66.1191 357 67.1191Z" fill="white"/>
<ellipse cx="186.143" cy="59.645" rx="29.5381" ry="13.3243" transform="rotate(-16.9996 186.143 59.645)" fill="white"/>
<ellipse rx="15.4819" ry="6.9837" transform="matrix(0.956307 0.292365 0.292365 -0.956307 359.142 55.645)" fill="white"/>
</g>
<defs>
<clipPath id="clip0_84_991">
<rect width="372.841" height="236.864" fill="white" transform="translate(94.3066 41.6705)"/>
</clipPath>
</defs>
</svg>
