<svg width="433" height="333" viewBox="0 0 433 333" fill="none" xmlns="http://www.w3.org/2000/svg">
<g filter="url(#filter0_d_81_457)">
<path fill-rule="evenodd" clip-rule="evenodd" d="M428.093 180.793C429.261 176.433 426.674 171.952 422.314 170.784L181.519 106.263C177.159 105.094 172.678 107.682 171.51 112.041L142.375 220.772C141.207 225.132 143.794 229.613 148.154 230.781L314.766 275.425C317.586 276.18 319.789 278.383 320.544 281.203L328.92 312.463C330.549 318.54 338.145 320.575 342.593 316.127L365.477 293.243C367.541 291.178 370.551 290.372 373.371 291.128L388.95 295.302C393.309 296.47 397.791 293.883 398.959 289.523L428.093 180.793Z" fill="#6F42C1"/>
<circle cx="258.035" cy="192.99" r="10.4171" transform="rotate(27.1963 258.035 192.99)" fill="white"/>
<ellipse cx="298.088" cy="204.788" rx="11.0681" ry="10.4171" transform="rotate(27.1963 298.088 204.788)" fill="white"/>
<circle cx="339.333" cy="214.269" r="10.4171" transform="rotate(27.1963 339.333 214.269)" fill="white"/>
<path fill-rule="evenodd" clip-rule="evenodd" d="M12.281 76.8106C11.1128 72.4509 13.7 67.9697 18.0597 66.8015L258.855 2.2805C263.215 1.11232 267.696 3.69956 268.865 8.05926L297.999 116.79C299.167 121.15 296.58 125.631 292.22 126.799L125.608 171.442C122.788 172.198 120.585 174.401 119.83 177.221L111.454 208.481C109.825 214.558 102.229 216.593 97.7809 212.145L74.8971 189.261C72.8325 187.196 69.8234 186.39 67.0032 187.146L51.4244 191.32C47.0647 192.488 42.5835 189.901 41.4153 185.541L12.281 76.8106Z" fill="#F9F6FF"/>
<circle cx="120.04" cy="105.029" r="10.4171" transform="rotate(-2.80371 120.04 105.029)" fill="#6F42C1"/>
<ellipse cx="160.627" cy="95.2196" rx="11.0681" ry="10.4171" transform="rotate(-2.80371 160.627 95.2196)" fill="#6F42C1"/>
<circle cx="201.085" cy="82.8085" r="10.4171" transform="rotate(-2.80371 201.085 82.8085)" fill="#6F42C1"/>
</g>
<defs>
<filter id="filter0_d_81_457" x="0.984916" y="0.898491" width="431.795" height="331.947" filterUnits="userSpaceOnUse" color-interpolation-filters="sRGB">
<feFlood flood-opacity="0" result="BackgroundImageFix"/>
<feColorMatrix in="SourceAlpha" type="matrix" values="0 0 0 0 0 0 0 0 0 0 0 0 0 0 0 0 0 0 127 0" result="hardAlpha"/>
<feOffset dx="-3.30453" dy="6.60905"/>
<feGaussianBlur stdDeviation="3.85528"/>
<feComposite in2="hardAlpha" operator="out"/>
<feColorMatrix type="matrix" values="0 0 0 0 0 0 0 0 0 0 0 0 0 0 0 0 0 0 0.1 0"/>
<feBlend mode="normal" in2="BackgroundImageFix" result="effect1_dropShadow_81_457"/>
<feBlend mode="normal" in="SourceGraphic" in2="effect1_dropShadow_81_457" result="shape"/>
</filter>
</defs>
</svg>
