<svg width="388" height="389" viewBox="0 0 388 389" fill="none" xmlns="http://www.w3.org/2000/svg">
<g filter="url(#filter0_d_230_43)">
<rect x="12" y="5" width="364" height="365" rx="10.8313" fill="url(#paint0_linear_230_43)"/>
</g>
<path d="M12 56.6692L139.135 5L250.185 5L12 112V56.6692Z" fill="#6F42C1"/>
<path d="M74.7731 60.0897C74.8374 60.061 74.9076 60.0457 74.9838 60.0438C75.0576 60.0365 75.1371 60.0492 75.2223 60.0818L76.8038 60.7339C76.6074 61.5599 76.2237 62.2897 75.6525 62.9234C75.0844 63.5494 74.3158 64.0786 73.3467 64.511C72.4579 64.9077 71.5933 65.1138 70.7527 65.1293C69.9151 65.1372 69.1318 64.986 68.4027 64.6757C67.6765 64.3578 67.0198 63.8932 66.4325 63.2822C65.8428 62.6657 65.3568 61.9292 64.9745 61.0726C64.585 60.1998 64.3777 59.3325 64.3526 58.4706C64.3251 57.6032 64.4608 56.7851 64.7596 56.0161C65.0638 55.2447 65.525 54.5445 66.1432 53.9156C66.7613 53.2866 67.5228 52.7702 68.4277 52.3664C68.8667 52.1705 69.2969 52.0266 69.7182 51.9349C70.1425 51.8354 70.5544 51.78 70.9538 51.7687C71.3508 51.752 71.7342 51.7768 72.104 51.8429C72.4714 51.9036 72.8162 52.0001 73.1385 52.1324L72.7713 53.7697C72.7459 53.871 72.7073 53.9716 72.6557 54.0717C72.6017 54.1665 72.5024 54.2461 72.3578 54.3106C72.2614 54.3536 72.1609 54.3728 72.0561 54.3682C71.9513 54.3636 71.8376 54.3534 71.7149 54.3375C71.5899 54.3162 71.4529 54.2971 71.3041 54.2801C71.1582 54.2553 70.9918 54.2493 70.8049 54.2621C70.621 54.2671 70.4124 54.296 70.1791 54.3487C69.9512 54.3991 69.6953 54.4876 69.4115 54.6142C68.919 54.834 68.5087 55.1231 68.1806 55.4814C67.8501 55.8343 67.6106 56.2398 67.4618 56.6978C67.3161 57.148 67.263 57.6404 67.3025 58.175C67.3473 58.7071 67.4976 59.2596 67.7533 59.8325C68.0209 60.4321 68.3389 60.929 68.7074 61.3231C69.0813 61.7149 69.4791 62.0092 69.9008 62.2062C70.3256 62.3955 70.7624 62.4895 71.2112 62.4882C71.6601 62.4869 72.0987 62.3907 72.527 62.1995C72.7733 62.0896 72.9934 61.9786 73.1873 61.8664C73.3788 61.7488 73.5471 61.6223 73.6921 61.487C73.8425 61.3492 73.975 61.2002 74.0897 61.0399C74.2073 60.8718 74.3153 60.6824 74.4138 60.4715C74.4542 60.3893 74.5047 60.3154 74.5653 60.2498C74.6235 60.1789 74.6928 60.1255 74.7731 60.0897ZM80.5652 58.5353L84.902 56.5999L85.8696 58.7683L78.8184 61.9151L73.5964 50.2138L76.3109 49.0024L80.5652 58.5353ZM95.4403 47.4765C95.8178 48.3225 96.0218 49.1752 96.0523 50.0348C96.0881 50.892 95.9617 51.7092 95.6729 52.4865C95.3818 53.2585 94.9296 53.9643 94.3162 54.604C93.7082 55.2413 92.9491 55.763 92.0389 56.1692C91.1287 56.5754 90.2307 56.7932 89.345 56.8225C88.4592 56.8518 87.6292 56.7183 86.8548 56.4218C86.0834 56.1176 85.388 55.6671 84.7686 55.0704C84.1545 54.4713 83.6587 53.7487 83.2812 52.9028C82.9037 52.0568 82.697 51.2053 82.6612 50.3481C82.6307 49.4885 82.761 48.6728 83.0521 47.9008C83.3486 47.1265 83.8035 46.4195 84.4169 45.7798C85.0303 45.1401 85.7921 44.6171 86.7022 44.2109C87.6124 43.8048 88.5089 43.5909 89.3917 43.5693C90.2775 43.54 91.1049 43.6747 91.8738 43.9736C92.6428 44.2724 93.3344 44.7214 93.9484 45.3206C94.5679 45.9173 95.0651 46.6359 95.4403 47.4765ZM92.6615 48.7166C92.4035 48.1384 92.0967 47.6525 91.7413 47.2589C91.3836 46.86 90.9911 46.5633 90.564 46.3687C90.1422 46.1717 89.6896 46.0783 89.2063 46.0886C88.7229 46.0988 88.2215 46.2199 87.7022 46.4516C87.1775 46.6858 86.7473 46.9805 86.4114 47.3358C86.081 47.6887 85.8456 48.0891 85.7052 48.537C85.5701 48.9825 85.5316 49.4716 85.5895 50.0043C85.6451 50.5317 85.8019 51.0845 86.06 51.6627C86.3204 52.2463 86.6295 52.7375 86.9873 53.1364C87.3427 53.53 87.7313 53.8253 88.1531 54.0223C88.5802 54.2169 89.0354 54.309 89.5188 54.2988C90.0051 54.2808 90.5107 54.1547 91.0354 53.9205C91.5547 53.6888 91.9808 53.3991 92.3136 53.0515C92.6441 52.6986 92.8768 52.2994 93.0119 51.8539C93.1523 51.406 93.1947 50.9184 93.1391 50.3911C93.0812 49.8584 92.922 49.3002 92.6615 48.7166ZM101.711 40.5176C101.688 40.682 101.645 40.8166 101.583 40.9215C101.526 41.0239 101.428 41.1062 101.289 41.1684C101.166 41.2233 101.015 41.2456 100.837 41.2351C100.662 41.2169 100.462 41.2003 100.237 41.1851C100.017 41.1676 99.7756 41.1728 99.5119 41.2005C99.2458 41.223 98.9656 41.2999 98.6711 41.4313C98.1625 41.6583 97.8313 41.9377 97.6776 42.2695C97.5269 42.5936 97.534 42.9403 97.6989 43.3098C97.804 43.5453 97.9662 43.7073 98.1854 43.7957C98.4046 43.8841 98.6597 43.9307 98.9508 43.9356C99.2473 43.9381 99.5723 43.9183 99.9259 43.8761C100.282 43.8261 100.65 43.7872 101.029 43.7592C101.406 43.7259 101.784 43.7176 102.164 43.7343C102.549 43.7485 102.916 43.8224 103.265 43.9558C103.619 44.0868 103.948 44.2929 104.253 44.574C104.556 44.8498 104.816 45.2313 105.034 45.7185C105.275 46.2592 105.407 46.807 105.43 47.3618C105.453 47.9166 105.364 48.4507 105.163 48.9642C104.965 49.4699 104.649 49.9415 104.215 50.3791C103.784 50.809 103.236 51.1721 102.573 51.4684C102.208 51.6308 101.82 51.7594 101.406 51.8541C100.998 51.9464 100.587 52.0045 100.174 52.0283C99.7585 52.0468 99.3537 52.0317 98.9595 51.9828C98.5654 51.934 98.2018 51.8459 97.8689 51.7184L98.1057 50.0911C98.1216 49.9684 98.1699 49.8538 98.2507 49.7471C98.3315 49.6404 98.4335 49.5596 98.5566 49.5046C98.7172 49.433 98.9006 49.4121 99.1066 49.4422C99.318 49.4698 99.5528 49.4998 99.8113 49.5322C100.075 49.5621 100.363 49.5683 100.677 49.5505C100.99 49.5328 101.328 49.4427 101.692 49.2802C102.185 49.0604 102.52 48.7824 102.697 48.4464C102.872 48.1051 102.855 47.6988 102.645 47.2276C102.523 46.9546 102.349 46.7658 102.122 46.6614C101.896 46.557 101.635 46.5035 101.338 46.501C101.047 46.4961 100.727 46.5201 100.378 46.573C100.029 46.6259 99.6691 46.6744 99.2971 46.7184C98.9227 46.7571 98.5468 46.7707 98.1694 46.7594C97.7895 46.7427 97.4215 46.6662 97.0653 46.5298C96.7121 46.3857 96.3781 46.1624 96.0633 45.8598C95.7461 45.552 95.4657 45.125 95.222 44.5789C95.0261 44.1398 94.9232 43.6721 94.9136 43.1756C94.9039 42.6791 94.9975 42.1912 95.1944 41.7116C95.3913 41.2321 95.6957 40.7849 96.1076 40.3699C96.5171 39.9496 97.0431 39.5961 97.6856 39.3094C98.0443 39.1493 98.4055 39.0234 98.7691 38.9318C99.1356 38.8324 99.4966 38.7708 99.852 38.7471C100.205 38.718 100.547 38.7225 100.879 38.7607C101.213 38.7911 101.528 38.8561 101.823 38.9557L101.711 40.5176ZM110.368 33.8038L111.3 35.8919L106.497 38.0352L107.716 40.7657L111.394 39.1242L112.29 41.132L108.612 42.7735L109.855 45.5603L114.658 43.417L115.59 45.5051L108.057 48.8669L102.835 37.1656L110.368 33.8038ZM125.143 34.2211C125.52 35.0671 125.722 35.9145 125.748 36.7633C125.776 37.6044 125.643 38.4056 125.347 39.1668C125.049 39.9227 124.59 40.6152 123.972 41.2442C123.357 41.8654 122.594 42.3791 121.684 42.7853L117.139 44.8139L111.917 33.1126L116.462 31.084C117.372 30.6778 118.265 30.4559 119.141 30.4183C120.022 30.3782 120.843 30.4996 121.605 30.7824C122.367 31.0652 123.052 31.5008 123.662 32.0892C124.274 32.6699 124.768 33.3805 125.143 34.2211ZM122.364 35.4612C122.106 34.883 121.798 34.3944 121.44 33.9955C121.083 33.5966 120.69 33.2998 120.263 33.1052C119.839 32.9029 119.385 32.8068 118.902 32.8171C118.416 32.822 117.913 32.9403 117.394 33.1721L115.579 33.9821L118.937 41.5072L120.752 40.6972C121.272 40.4655 121.697 40.1731 122.027 39.8202C122.355 39.4619 122.587 39.06 122.722 38.6145C122.86 38.1613 122.9 37.6683 122.842 37.1356C122.784 36.6029 122.625 36.0448 122.364 35.4612Z" fill="white"/>
<defs>
<filter id="filter0_d_230_43" x="0" y="0" width="388" height="389" filterUnits="userSpaceOnUse" color-interpolation-filters="sRGB">
<feFlood flood-opacity="0" result="BackgroundImageFix"/>
<feColorMatrix in="SourceAlpha" type="matrix" values="0 0 0 0 0 0 0 0 0 0 0 0 0 0 0 0 0 0 127 0" result="hardAlpha"/>
<feOffset dy="7"/>
<feGaussianBlur stdDeviation="6"/>
<feComposite in2="hardAlpha" operator="out"/>
<feColorMatrix type="matrix" values="0 0 0 0 0 0 0 0 0 0 0 0 0 0 0 0 0 0 0.2 0"/>
<feBlend mode="normal" in2="BackgroundImageFix" result="effect1_dropShadow_230_43"/>
<feBlend mode="normal" in="SourceGraphic" in2="effect1_dropShadow_230_43" result="shape"/>
</filter>
<linearGradient id="paint0_linear_230_43" x1="12" y1="5" x2="376.999" y2="368.999" gradientUnits="userSpaceOnUse">
<stop stop-color="#D5BFFF"/>
<stop offset="1" stop-color="#F7F2FF"/>
</linearGradient>
</defs>
</svg>
