<svg width="108" height="91" viewBox="0 0 108 91" fill="none" xmlns="http://www.w3.org/2000/svg">
<path d="M32.1994 22.9585C31.595 23.9244 31.3566 25.0746 31.5269 26.2013C31.6972 27.328 32.2658 28.3559 33.1278 29.1001C33.9907 29.8442 35.0912 30.2556 36.2309 30.2582C36.72 30.2442 37.2056 30.1595 37.6711 30.0075C38.3445 30.3569 39.0904 30.542 39.8493 30.5464C40.272 30.5481 40.693 30.494 41.1017 30.3831C42.3236 30.0556 43.3673 29.2599 44.0065 28.1673L50.818 16.3724L56.44 16.748L53.5473 18.4257V18.4266C52.4538 19.0598 51.6564 20.1008 51.3306 21.3218C51.004 22.5419 51.1752 23.8422 51.8066 24.9367C52.4311 26.0214 53.4573 26.8179 54.6642 27.1524C55.8704 27.4878 57.1594 27.3349 58.2548 26.7271L77.8375 18.1627L77.8367 18.1636C78.5161 18.1313 79.193 18.064 79.8655 17.9627L80.9301 17.8003L80.9293 0.0960693H79.6768C78.4244 0.0960693 49.4014 0.196508 42.2647 7.88392L31.096 14.2317H31.0969C30.0034 14.8649 29.2069 15.9068 28.8803 17.1269C28.5545 18.3478 28.7257 19.6482 29.3562 20.7426C29.9781 21.8247 30.9982 22.6195 32.1991 22.9584L32.1994 22.9585ZM34.34 24.2109L41.251 13.8065L35.7296 23.3725V23.3716C34.9881 24.6659 34.8999 26.2346 35.4921 27.604C35.3113 27.5481 35.1383 27.4678 34.9785 27.3656C33.9462 26.6669 33.6623 25.2704 34.3401 24.2231L34.34 24.2109ZM78.4262 2.61231V15.609L77.462 15.6841H77.2489L57.2154 24.4483L57.0905 24.5112H57.0914C56.5664 24.8099 55.9464 24.8902 55.3629 24.7365C54.4826 24.492 53.8337 23.7461 53.714 22.8404C53.5935 21.9347 54.0258 21.0448 54.8127 20.5793L64.8295 14.8326L60.7605 14.5321C57.0041 14.257 53.0225 13.9941 50.2677 13.8064H49.4913L41.9033 26.9533V26.9524C41.595 27.4712 41.0963 27.8485 40.5138 28.0048C39.9348 28.1568 39.319 28.0756 38.7985 27.7795C38.2745 27.4825 37.8945 26.9856 37.747 26.4022C37.5871 25.8187 37.6684 25.196 37.9723 24.6738L45.7349 11.064L44.5951 9.07361C50.3428 4.05261 69.737 2.72497 78.4255 2.61251L78.4262 2.61231ZM32.3502 16.3855L39.0865 12.5539L33.7406 20.5924H33.7397C32.8437 20.7007 31.9703 20.2614 31.524 19.478C30.9083 18.3985 31.2768 17.0237 32.3502 16.3977L32.3502 16.3855Z" fill="#C3A3FF"/>
<path d="M16.0602 64.3773H2.83817L0.0957031 73.0664V85.6622H18.8767L18.7894 73.4297L16.0602 64.3773ZM14.2069 66.8812L15.7598 71.889H3.13872L4.69157 66.8812H14.2069ZM2.59981 83.1583V74.3941L16.373 74.3932V83.1574L2.59981 83.1583Z" fill="#C3A3FF"/>
<path d="M21.3828 74.3938H23.8867V76.8977H21.3828V74.3938Z" fill="#C3A3FF"/>
<path d="M26.3906 74.3938H28.8945V76.8977H26.3906V74.3938Z" fill="#C3A3FF"/>
<path d="M31.3984 74.3938H33.9023V76.8977H31.3984V74.3938Z" fill="#C3A3FF"/>
<path d="M91.8108 64.3773L89.119 73.0664L88.9941 85.6622H107.775V73.4297L105.033 64.3773H91.8108ZM103.18 66.8812L104.732 71.889H92.1113L93.6642 66.8812H103.18ZM105.27 83.1583H91.4981V74.3941L105.271 74.3932L105.27 83.1583Z" fill="#C3A3FF"/>
<path d="M73.9688 74.3938H76.4726V76.8977H73.9688V74.3938Z" fill="#C3A3FF"/>
<path d="M78.9766 74.3938H81.4805V76.8977H78.9766V74.3938Z" fill="#C3A3FF"/>
<path d="M83.9844 74.3938H86.4883V76.8977H83.9844V74.3938Z" fill="#C3A3FF"/>
<path d="M54.1236 52.7956L59.3325 44.3815L57.2041 43.0671L53.7481 48.6383L51.4066 46.0217L49.541 47.6872L54.1236 52.7956Z" fill="#C3A3FF"/>
<path d="M14.4448 42.2895L12.3164 40.975L8.86052 46.5463L6.51983 43.9297L4.6543 45.5952L9.23596 50.7036L14.4448 42.2895Z" fill="#C3A3FF"/>
<path d="M97.7579 46.5465L95.4163 43.9299L93.5508 45.5954L98.1333 50.7039L103.342 42.2898L101.214 40.9753L97.7579 46.5465Z" fill="#C3A3FF"/>
<path d="M45.1719 29.3193H47.6758V34.3272H45.1719V29.3193Z" fill="#C3A3FF"/>
<path d="M50.1797 33.0757H52.6836V38.0835H50.1797V33.0757Z" fill="#C3A3FF"/>
<path d="M55.1875 29.3193H57.6914V34.3272H55.1875V29.3193Z" fill="#C3A3FF"/>
<path d="M60.1953 31.8235H62.6992V35.5799H60.1953V31.8235Z" fill="#C3A3FF"/>
<path d="M98.3848 35.5798C95.3874 35.5868 92.5734 37.0235 90.8109 39.448C89.0485 41.8725 88.5489 44.9922 89.4668 47.8456C90.3847 50.6998 92.6093 52.9435 95.4546 53.885L98.3846 61.7732L101.315 53.885H101.314C104.159 52.9435 106.385 50.6998 107.302 47.8456C108.22 44.9922 107.721 41.8725 105.958 39.448C104.196 37.0235 101.382 35.5867 98.3845 35.5798H98.3848ZM100.05 51.6438L99.4119 51.8062L98.3848 54.5863L97.3577 51.8062L96.7192 51.6438C94.5253 51.097 92.7392 49.5084 91.9419 47.3921C91.1437 45.2768 91.4345 42.9048 92.721 41.0453C94.0066 39.185 96.1237 38.075 98.3848 38.075C100.646 38.075 102.763 39.185 104.049 41.0453C105.334 42.9047 105.626 45.2768 104.828 47.3921C104.029 49.5083 102.243 51.0969 100.049 51.6438H100.05Z" fill="#C3A3FF"/>
<path d="M6.5588 53.8846L9.48885 61.7729L12.4189 53.8846H12.418C15.2705 52.9484 17.5028 50.7037 18.425 47.8461C19.3465 44.9885 18.8469 41.8625 17.0792 39.4355C15.3124 37.0085 12.4906 35.5727 9.48787 35.5727C6.48515 35.5727 3.6642 37.0085 1.89655 39.4355C0.129734 41.8625 -0.370802 44.9885 0.551567 47.8461C1.47298 50.7037 3.70521 52.9482 6.55857 53.8846H6.5588ZM9.48818 38.0835C11.7415 38.0949 13.8463 39.2067 15.1249 41.0617C16.4036 42.9166 16.6944 45.28 15.9022 47.3893C15.111 49.4994 13.3371 51.088 11.1538 51.6434L10.5153 51.8059L9.48825 54.5859L8.46116 51.8059L7.82271 51.6434H7.82359C5.64017 51.0879 3.86639 49.4993 3.07424 47.3893C2.28295 45.2801 2.57292 42.9167 3.85155 41.0617C5.13017 39.2066 7.23592 38.0947 9.4883 38.0835H9.48818Z" fill="#C3A3FF"/>
<path d="M85.2363 49.3525C85.2407 48.0965 84.7725 46.8843 83.9245 45.9576C83.0773 45.0301 81.9114 44.4554 80.6597 44.3471C79.4081 44.2388 78.1618 44.6047 77.1671 45.3724C76.1732 46.1401 75.5034 47.2537 75.2911 48.4912C75.0798 49.7296 75.3409 51.002 76.023 52.0571C76.706 53.1121 77.7593 53.872 78.9759 54.1855V60.6213H70.2116V61.1471L66.5811 49.3775H62.699V36.8568H60.1951V55.6378H47.6744V36.8568H45.1705V49.3775H41.1259L37.6201 60.6456L28.8934 60.6465V54.1854C30.4804 53.7758 31.7669 52.6151 32.3371 51.078C32.9074 49.5409 32.689 47.8222 31.7528 46.4762C30.8165 45.1304 29.2802 44.3277 27.6409 44.3277C26.0016 44.3277 24.4662 45.1304 23.5298 46.4762C22.5936 47.8221 22.3752 49.5409 22.9456 51.078C23.5159 52.6152 24.8015 53.7758 26.3892 54.1854V63.1251H36.8444L35.8426 66.368V90.6715H72.1525L71.9901 66.7324L70.8757 63.1263H81.4802V54.1865C82.5527 53.9096 83.5029 53.2852 84.1824 52.4109C84.8628 51.5367 85.2331 50.4616 85.2366 49.3532L85.2363 49.3525ZM25.1371 49.3525C25.1371 48.3402 25.7476 47.4267 26.683 47.0397C27.6193 46.6519 28.6961 46.8659 29.4123 47.5821C30.1284 48.2982 30.3424 49.3751 29.9546 50.3114C29.5677 51.2467 28.6542 51.8572 27.641 51.8572C26.2585 51.8572 25.1371 50.7358 25.1371 49.3524L25.1371 49.3525ZM42.9793 51.8564L45.1706 51.8572V58.1176H62.6991V51.8572H64.7401L69.0345 65.6304L38.6853 65.6295L42.9793 51.8564ZM38.284 88.1663V68.1328L69.4471 68.1336L69.572 88.1671L38.284 88.1663ZM80.2282 51.8564V51.8572C79.2151 51.8572 78.3016 51.2467 77.9146 50.3114C77.5268 49.3751 77.7408 48.2982 78.457 47.5821C79.1731 46.8659 80.25 46.6519 81.1863 47.0397C82.1216 47.4266 82.7321 48.3402 82.7321 49.3525C82.7321 50.0171 82.4684 50.6538 81.9985 51.1237C81.5286 51.5935 80.892 51.8573 80.2282 51.8573L80.2282 51.8564Z" fill="#C3A3FF"/>
</svg>
