<svg width="84" height="84" viewBox="0 0 84 84" fill="none" xmlns="http://www.w3.org/2000/svg">
<path d="M75.0695 73.2209H9.36045C7.06832 73.218 4.8712 72.3062 3.25004 70.6857C1.62947 69.0646 0.71766 66.8674 0.714844 64.5753V23.0755C0.717739 20.7834 1.6296 18.5857 3.25004 16.9646C4.8712 15.3441 7.06832 14.4323 9.36045 14.4294V17.8882C7.98484 17.8882 6.66533 18.4347 5.69275 19.4073C4.71952 20.38 4.17297 21.6995 4.17297 23.0756V64.5755C4.17297 65.9511 4.7195 67.2706 5.69275 68.2432C6.6654 69.2164 7.98487 69.7629 9.36045 69.7629H75.0695C76.4451 69.7629 77.7646 69.2164 78.7372 68.2432C79.7104 67.2705 80.257 65.951 80.257 64.5755V23.0756C80.257 21.6994 79.7104 20.3799 78.7372 19.4073C77.7646 18.4347 76.4451 17.8882 75.0695 17.8882V14.4294C77.3616 14.4323 79.5587 15.3442 81.1799 16.9646C82.8005 18.5858 83.7123 20.7835 83.7151 23.0755V64.5753C83.7122 66.8674 82.8003 69.0646 81.1799 70.6857C79.5587 72.3063 77.3616 73.2181 75.0695 73.2209Z" fill="#C3A3FF"/>
<path d="M24.9219 80.1379H59.5046V83.596H24.9219V80.1379Z" fill="#C3A3FF"/>
<path d="M30.1113 71.4912H33.5694V81.8662H30.1113V71.4912Z" fill="#C3A3FF"/>
<path d="M50.8594 71.4912H54.3175V81.8662H50.8594V71.4912Z" fill="#C3A3FF"/>
<path d="M66.4236 59.3881H18.0081C16.6319 59.3881 15.3124 58.8415 14.3398 57.8683C13.3671 56.8956 12.8206 55.5762 12.8206 54.2006V21.3461H16.2787V54.2006C16.2787 54.6591 16.4611 55.0986 16.7853 55.4234C17.1095 55.7476 17.5495 55.9294 18.0081 55.9294H66.4236C66.8821 55.9294 67.3221 55.7476 67.6463 55.4234C67.9705 55.0986 68.1529 54.6591 68.1529 54.2006V5.78362C68.1529 5.32508 67.9705 4.88508 67.6463 4.56086C67.3221 4.23664 66.8821 4.05427 66.4236 4.05427H18.0081C17.0528 4.05427 16.2787 4.82892 16.2787 5.78362V14.4292H64.6957V17.8873L14.5491 17.8879C13.5944 17.8879 12.8203 17.1133 12.8203 16.1586V5.78361C12.8203 4.40801 13.3669 3.08849 14.3395 2.11532C15.3122 1.14267 16.6316 0.59613 18.0078 0.59613H66.4233C67.7995 0.59613 69.119 1.14267 70.0916 2.11532C71.0642 3.08855 71.6107 4.40804 71.6107 5.78361V54.2006C71.6107 55.5762 71.0642 56.8957 70.0916 57.8683C69.1189 58.8415 67.7994 59.3881 66.4233 59.3881L66.4236 59.3881Z" fill="#C3A3FF"/>
<path d="M16.2784 66.3037H12.8203C11.4441 66.3037 10.1246 65.7572 9.152 64.7846C8.17942 63.8119 7.63281 62.4924 7.63281 61.1163V57.6581H11.0909V61.1163C11.0909 61.5748 11.2733 62.0148 11.5975 62.339C11.9217 62.6632 12.3617 62.8456 12.8203 62.8456H16.2784V66.3037Z" fill="#C3A3FF"/>
<path d="M19.7344 62.8459H23.1925V66.304H19.7344V62.8459Z" fill="#C3A3FF"/>
<path d="M19.7344 7.513H23.1925V10.9711H19.7344V7.513Z" fill="#C3A3FF"/>
<path d="M26.6523 7.513H30.1105V10.9711H26.6523V7.513Z" fill="#C3A3FF"/>
<path d="M33.5703 7.513H37.0284V10.9711H33.5703V7.513Z" fill="#C3A3FF"/>
<path d="M32.3472 41.589L23.7016 32.9434C23.0265 32.2678 23.0265 31.1736 23.7016 30.4979L32.3472 21.8523L34.7921 24.2972L27.3687 31.7207L34.7921 39.1441L32.3472 41.589Z" fill="#C3A3FF"/>
<path d="M52.0816 41.589L49.6367 39.1441L57.0601 31.7207L49.6367 24.2972L52.0816 21.8523L60.7272 30.4979C61.4023 31.1735 61.4023 32.2677 60.7272 32.9434L52.0816 41.589Z" fill="#C3A3FF"/>
<path d="M37.1562 39.7275L44.0667 22.4339L47.2782 23.7169L40.3677 41.0104L37.1562 39.7275Z" fill="#C3A3FF"/>
<path d="M21.4648 49.013H62.9647V52.4711H21.4648V49.013Z" fill="#C3A3FF"/>
</svg>
