<svg width="495" height="436" viewBox="0 0 495 436" fill="none" xmlns="http://www.w3.org/2000/svg">
<g opacity="0.5">
<path d="M384.468 281.342L288.81 185.597L352.314 122.034L247.01 16.6335L131.256 132.494L191.143 132.494L191.143 204.504L131.256 264.446L224.502 357.778L224.502 281.342L370.4 204.504L396.525 33.9321L266.302 94.6784L105.935 33.9321L46.852 185.597L105.935 204.504" stroke="#6F42C1"/>
<circle cx="222.163" cy="281.021" r="7.58099" transform="rotate(-180 222.163 281.021)" fill="#6F42C1"/>
<circle cx="194.682" cy="201.42" r="7.58099" transform="rotate(-180 194.682 201.42)" fill="#6F42C1"/>
<circle cx="329.244" cy="224.163" r="7.58099" transform="rotate(-180 329.244 224.163)" fill="#6F42C1"/>
<circle cx="389.893" cy="38.4288" r="7.58099" transform="rotate(-180 389.893 38.4288)" fill="#6F42C1"/>
<circle cx="261.963" cy="95.2863" r="7.58099" transform="rotate(-180 261.963 95.2863)" fill="#6F42C1"/>
<circle cx="351.988" cy="123.715" r="5.68575" transform="rotate(-180 351.988 123.715)" fill="#6F42C1"/>
<ellipse cx="246.001" cy="25" rx="25" ry="25" transform="rotate(-180 246.001 25)" fill="#6F42C1"/>
<ellipse cx="265.001" cy="92" rx="18" ry="18" transform="rotate(-180 265.001 92)" fill="#6F42C1"/>
<ellipse cx="247.001" cy="17.5" rx="10" ry="9.5" transform="rotate(-180 247.001 17.5)" fill="white"/>
<ellipse cx="265.501" cy="87" rx="7.5" ry="7" transform="rotate(-180 265.501 87)" fill="white"/>
<ellipse cx="247.001" cy="41.5" rx="17" ry="16.5" transform="rotate(-180 247.001 41.5)" fill="white"/>
<ellipse cx="265.501" cy="104" rx="12.5" ry="12" transform="rotate(-180 265.501 104)" fill="white"/>
<circle cx="382.312" cy="281.021" r="7.58099" transform="rotate(-180 382.312 281.021)" fill="#6F42C1"/>
<circle cx="104.658" cy="201.42" r="7.58099" transform="rotate(-180 104.658 201.42)" fill="#6F42C1"/>
<circle cx="132.139" cy="131.296" r="7.58099" transform="rotate(-180 132.139 131.296)" fill="#6F42C1"/>
<circle cx="102.42" cy="30.8478" r="7.58099" transform="rotate(-180 102.42 30.8478)" fill="#6F42C1"/>
<ellipse cx="103.001" cy="35" rx="18" ry="18" transform="rotate(-180 103.001 35)" fill="#6F42C1"/>
<ellipse cx="353.001" cy="121" rx="11" ry="11" transform="rotate(-180 353.001 121)" fill="#6F42C1"/>
<ellipse cx="103.001" cy="30" rx="7" ry="7" transform="rotate(-180 103.001 30)" fill="white"/>
<ellipse cx="353.001" cy="118" rx="4" ry="4" transform="rotate(-180 353.001 118)" fill="white"/>
<ellipse cx="102.501" cy="47" rx="12.5" ry="12" transform="rotate(-180 102.501 47)" fill="white"/>
<ellipse cx="352.501" cy="128.5" rx="7.5" ry="7.5" transform="rotate(-180 352.501 128.5)" fill="white"/>
</g>
<g clip-path="url(#clip0_84_756)">
<path d="M377.431 356.084H371.187C349.999 356.084 332.823 373.239 332.823 394.401L320.333 400.249C320.333 421.411 328.98 430.747 350.168 430.747L398.566 424.117C419.754 424.117 415.794 415.588 415.794 394.426V394.401C415.794 373.239 398.618 356.084 377.431 356.084Z" fill="#261742"/>
<path d="M354.794 245.343C370.725 237.798 386.631 239.928 402.562 238.414C403.577 238.137 404.649 238.155 405.655 238.463C406.66 238.772 407.557 239.36 408.241 240.159C409.087 241.68 409.653 243.34 409.911 245.061C414.665 266.131 419.598 283.557 421.654 306.655C424.09 330.495 422.465 354.575 416.849 377.873C416.43 379.822 415.747 381.704 414.819 383.468C414.036 384.73 413.015 385.829 411.812 386.702C406.245 391.246 399.886 394.726 393.055 396.967C387.765 398.644 382.375 399.99 376.918 400.997C357.672 404.923 337.861 408.696 320.388 400.381C319.21 399.938 318.221 399.105 317.587 398.02C316.881 396.318 316.506 394.497 316.482 392.656C314.375 368.737 320.182 343.252 324.627 318.229C329.769 292.232 340.023 267.511 354.794 245.497" fill="#F9F6FF"/>
<path d="M162.14 396.223H101.858C91.115 396.223 82.4062 404.921 82.4062 415.651C82.4062 426.38 91.115 435.079 101.858 435.079H162.14C172.882 435.079 181.591 426.38 181.591 415.651C181.591 404.921 172.882 396.223 162.14 396.223Z" fill="#261742"/>
<path d="M133.617 380.696H73.3354C62.5926 380.696 53.8838 389.394 53.8838 400.124C53.8838 410.854 62.5926 419.552 73.3354 419.552H133.617C144.36 419.552 153.069 410.854 153.069 400.124C153.069 389.394 144.36 380.696 133.617 380.696Z" fill="#073054" stroke="#073054" stroke-width="1.91268" stroke-miterlimit="10"/>
<path d="M279.645 388.01H209.933C197.502 388.01 187.424 398.07 187.424 410.479C187.424 422.889 197.502 432.949 209.933 432.949H279.645C292.077 432.949 302.155 422.889 302.155 410.479C302.155 398.07 292.077 388.01 279.645 388.01Z" fill="#261742"/>
<path d="M361.217 201.945C366.524 197.033 372.203 192.537 378.202 188.497C378.692 188.051 379.337 187.812 380 187.83C381.259 188.035 381.85 190.011 382.185 191.654L390.767 233.743C391.051 234.697 391.051 235.714 390.767 236.669C390.253 237.798 389.071 237.849 388.197 237.977C385.136 238.782 382.269 240.196 379.769 242.135C376.396 244.233 372.611 245.584 368.671 246.098C364.73 246.611 360.725 246.275 356.926 245.112C356.551 245.038 356.195 244.891 355.878 244.68C355.56 244.469 355.288 244.197 355.076 243.88C354.7 243.079 354.523 242.198 354.562 241.314C354.172 233.912 354.335 226.492 355.05 219.114L361.217 201.945Z" fill="#FF8868"/>
<path d="M338.349 249.578L397.988 229.508C397.988 229.508 427.795 323.388 380.464 318.845C333.133 314.303 338.349 249.578 338.349 249.578Z" fill="#6F42C1"/>
<path d="M74.2099 273.599C89.9356 267.517 105.816 269.852 121.644 268.8C122.65 268.571 123.698 268.6 124.691 268.882C125.683 269.165 126.588 269.693 127.323 270.417C128.201 271.694 128.812 273.134 129.121 274.652C134.261 292.822 139.657 308.015 142.252 327.648C145.224 347.983 144.159 368.703 139.117 388.626C138.742 390.288 138.109 391.882 137.241 393.349C136.45 394.436 135.455 395.36 134.312 396.069C128.673 399.86 122.424 402.656 115.837 404.333C110.568 405.635 105.232 406.654 99.8541 407.387C80.7623 410.338 61.1309 413.213 43.6065 405.565C42.463 405.184 41.4722 404.446 40.78 403.46C40.0542 402.03 39.6259 400.467 39.5209 398.866C36.9513 378.335 42.0905 356.597 45.9191 335.245C50.5428 312.838 60.2083 291.776 74.1843 273.651" fill="#6F42C1"/>
<path d="M160.521 421.271L130.714 424.505C122.336 423.214 113.896 422.358 105.429 421.939C92.1446 421.246 87.9562 422.118 84.0248 419.372C80.0934 416.626 74.6459 409.337 79.5024 383.75L87.3652 313.482C87.3652 308.036 89.531 302.814 93.3861 298.964C97.2411 295.113 102.47 292.95 107.922 292.95H169.848C175.3 292.95 180.529 295.113 184.384 298.964C188.239 302.814 190.405 308.036 190.405 313.482L203.252 380.414C205.822 386.856 209.548 398.789 203.895 405.667C200.914 409.286 196.751 409.748 187.707 412.135C178.462 414.609 169.382 417.661 160.521 421.271Z" fill="#F9F6FF"/>
<path d="M127.912 229.483C124.212 217.318 106.457 211.8 94.5082 211.8C86.1571 211.8 70.8683 214.366 68.1188 223.606C67.2338 227.407 67.1724 231.353 67.939 235.18C68.6843 240.409 70.2814 245.48 72.667 250.194C78.063 261.537 81.275 268.364 86.5683 270.468C100.752 276.115 133.874 248.987 127.912 229.483Z" fill="#B196ED"/>
<path d="M122.003 181.722C121.723 181.722 121.455 181.832 121.258 182.03C121.06 182.227 120.949 182.495 120.949 182.774C120.949 183.053 121.06 183.32 121.258 183.518C121.455 183.715 121.723 183.826 122.003 183.826C122.282 183.826 122.55 183.715 122.748 183.518C122.945 183.32 123.056 183.053 123.056 182.774C123.056 182.495 122.945 182.227 122.748 182.03C122.55 181.832 122.282 181.722 122.003 181.722Z" fill="#A05E38"/>
<path d="M94.4065 288.921C93.1229 286.509 91.4957 284.296 89.5757 282.351C87.4196 280.245 84.5908 278.964 81.5844 278.732C79.9141 278.732 78.2696 278.938 76.6251 278.732C75.9065 278.61 75.1681 278.69 74.4924 278.963C74.1005 279.272 73.828 279.708 73.7215 280.195L69.8415 292.437C69.0449 295.003 68.4282 297.929 70.6637 299.674C72.4278 300.764 74.5257 301.183 76.5737 300.855C78.64 300.544 80.7355 300.475 82.8177 300.649" fill="#FF8868"/>
<path d="M390.539 259.12C359.938 260.198 365.23 257.529 343.795 261.456C337.795 262.56 311.666 263.176 305.798 264.69C297.985 258.232 289.532 252.881 280.621 248.751C276.658 246.903 271.211 245.491 268.332 248.494C269.171 247.357 269.913 246.128 270.546 244.824C270.723 244.388 271.476 244.465 271.786 244.824C271.913 245.005 272.004 245.216 272.054 245.442C272.104 245.668 272.11 245.904 272.074 246.133L271.587 257.683C271.454 259.072 271.521 260.477 271.786 261.841C272.259 263.457 272.955 264.974 273.846 266.333C278.075 273.699 280.311 283.555 285.404 290.28C289.833 296.029 300.196 299.058 307.747 301.599C324.487 307.246 343.419 302.882 358.676 294.874C363.746 292.308 368.574 289.176 373.844 286.815C383.653 282.451 392.289 274.341 403.095 272.621C400.747 266.153 399.64 266.127 395.477 260.455C394.914 259.531 394.15 258.796 393.263 258.325C392.8 258.072 392.275 258.013 391.778 258.158C391.282 258.303 390.844 258.643 390.539 259.12Z" fill="#B196ED"/>
<path d="M286.221 244.525C315.222 256.059 344.911 267.8 375.665 267.955C371.476 276.783 365.005 283.842 357.173 288.126C352.369 290.618 347.32 292.408 342.14 293.454C323.36 297.773 302.451 296.919 286.886 284.299" fill="#B196ED"/>
<path d="M239.92 221.527C246.395 211.851 253.821 211.466 259.526 206.564C260.107 206.027 260.867 205.725 261.658 205.718C263.226 205.718 264.228 207.694 264.665 209.285C269.324 222.972 273.992 236.66 278.669 250.348C279.1 251.262 279.182 252.302 278.9 253.273C278.361 254.454 276.922 254.634 275.74 254.865C272.167 255.984 268.818 257.721 265.847 259.997C257.574 265.018 247.783 266.937 238.224 265.413C237.341 265.354 236.506 264.991 235.86 264.386C235.363 263.674 235.07 262.84 235.012 261.974C233.891 254.647 233.435 247.234 233.65 239.825C234.196 233.302 236.35 227.016 239.92 221.527Z" fill="#FF8868"/>
<path d="M308.143 189.703C314.952 196.863 322.224 205.358 321.145 215.034C320.271 222.733 313.796 229.149 306.37 231.946C298.729 234.347 290.627 234.901 282.73 233.563C272.012 232.29 261.492 229.704 251.407 225.864C248.619 224.485 245.517 223.866 242.413 224.067C235.501 225.222 233.446 233.769 228.949 239.03C226.588 241.7 223.425 243.536 219.932 244.262C216.44 244.988 212.806 244.566 209.574 243.059C206.434 241.423 204.027 238.666 202.832 235.336C201.636 232.007 201.741 228.35 203.125 225.094C204.506 223.073 205.58 220.859 206.311 218.524C206.876 215.034 204.461 211.826 202.585 208.797C199.918 204.421 198.17 199.549 197.446 194.477C196.401 188.867 197.55 183.07 200.658 178.283C202.309 175.925 204.688 174.174 207.432 173.298C210.175 172.422 213.13 172.469 215.844 173.432C221.137 175.665 223.553 183.415 219.441 187.368C221.677 181.799 222.602 175.793 224.298 170.044C225.653 164.098 228.822 158.717 233.368 154.646C238.148 150.924 245.497 149.821 250.379 153.491C255.261 157.161 255.518 165.912 250.019 168.556C249.146 163.988 251.124 159.419 253.051 155.21C257.214 146.125 261.531 136.835 268.751 129.854C275.972 122.873 286.918 118.716 296.528 122.155C309.145 126.543 314.13 144.585 305.445 154.466L314.232 155.698C318.654 157.002 322.805 159.089 326.489 161.857C328.292 163.244 329.685 165.094 330.518 167.209C331.35 169.325 331.592 171.626 331.217 173.868C328.648 183.544 313.513 183.364 307.809 191.628" fill="#B196ED"/>
<path d="M235.217 300.393L229.744 271.161L235.217 300.393Z" fill="#FE4238"/>
<path d="M228.69 248.654C247.654 240.955 266.823 243.521 285.914 242.289C287.148 241.966 288.445 241.971 289.675 242.304C290.906 242.638 292.028 243.287 292.929 244.188C293.954 245.804 294.669 247.597 295.036 249.475C301.203 272.162 307.499 291.051 310.454 315.663C313.409 340.275 313.023 366.992 306.24 391.911C305.782 393.996 305.002 395.996 303.927 397.84C302.972 399.192 301.769 400.35 300.381 401.253C293.611 406.027 286.053 409.571 278.051 411.724C271.698 413.4 265.255 414.72 258.754 415.677C235.628 419.475 212.04 423.222 190.969 413.829C189.594 413.343 188.401 412.447 187.552 411.262C186.695 409.46 186.206 407.506 186.113 405.514C183.055 379.849 189.479 352.645 194.284 325.954C199.952 298.039 211.698 271.71 228.69 248.833" fill="#6F42C1"/>
<path d="M315.388 238.388C316.41 238.388 317.39 237.983 318.113 237.261C318.836 236.539 319.242 235.559 319.242 234.538C319.242 233.517 318.836 232.538 318.113 231.816C317.39 231.094 316.41 230.689 315.388 230.689C314.365 230.689 313.385 231.094 312.662 231.816C311.939 232.538 311.533 233.517 311.533 234.538C311.533 235.559 311.939 236.539 312.662 237.261C313.385 237.983 314.365 238.388 315.388 238.388Z" fill="#CEB8FF"/>
<path d="M196.16 303.011C191.414 311.929 188.835 321.837 188.631 331.934C188.446 334.244 188.807 336.565 189.685 338.71C190.792 340.625 192.3 342.279 194.104 343.56C217.23 361.859 248.399 365.554 277.846 366.093C279.491 366.221 281.146 366.047 282.729 365.58C284.751 364.709 286.519 363.34 287.868 361.602C295.125 353.261 300.549 343.493 303.789 332.927C307.029 322.361 308.013 311.234 306.677 300.265C306.167 302.328 305.213 304.255 303.882 305.913C302.551 307.57 300.874 308.918 298.968 309.863C295.094 311.699 290.929 312.845 286.66 313.251C261.537 316.717 235.946 313.958 212.143 305.218L196.16 303.011Z" fill="#B196ED"/>
<path d="M319.988 314.226C319.238 310.727 318.207 307.294 316.904 303.96C315.568 300.906 313.769 298.519 311.765 298.263C310.711 298.263 309.632 298.596 308.579 298.442C308.116 298.442 307.602 298.211 307.217 298.802C306.937 299.408 306.771 300.06 306.729 300.726L304.159 319.872C303.645 323.747 303.26 328.495 304.699 331.267C304.996 331.981 305.543 332.562 306.239 332.902C306.934 333.242 307.729 333.317 308.476 333.115C309.741 332.581 311.134 332.429 312.484 332.678" fill="#FF8868"/>
<path d="M91.297 270.879C90.5899 268.103 89.5276 265.429 88.1364 262.923C86.7421 260.402 84.4342 258.511 81.6869 257.636C80.2479 257.277 78.7319 257.303 77.2929 256.918C76.6797 256.69 76.0047 256.69 75.3914 256.918C74.9781 257.204 74.671 257.619 74.5178 258.098L69.096 270.597C67.9911 273.163 66.9376 276.294 68.6335 278.578C69.2613 279.289 70.032 279.86 70.8953 280.253C71.7586 280.647 72.6952 280.854 73.6441 280.862C75.5207 280.838 77.3908 281.089 79.1944 281.607" fill="#FF8868"/>
<path d="M393.554 261.801C394.281 259.316 395.344 256.941 396.714 254.743C398.219 252.45 400.514 250.788 403.164 250.072C404.603 249.765 406.119 249.79 407.532 249.457C408.156 249.241 408.835 249.241 409.459 249.457C409.867 249.692 410.176 250.065 410.333 250.509L415.755 261.596C416.86 263.829 417.887 266.729 416.217 268.653C415.556 269.301 414.772 269.811 413.912 270.155C413.052 270.498 412.133 270.668 411.207 270.655C409.335 270.65 407.469 270.883 405.656 271.348" fill="#FF8868"/>
<path d="M211.733 305.269C211.733 305.269 208.495 334.398 198.885 347.025" stroke="white" stroke-width="11.4761" stroke-miterlimit="10"/>
<path d="M232.469 311.095C232.469 311.095 224.041 342.816 217.565 356.418" stroke="white" stroke-width="11.4761" stroke-miterlimit="10"/>
<path d="M114.5 233.255C116.658 219.32 118.38 208.156 125.523 200.174C134.851 189.78 153.197 185.135 163.116 192.988C179.458 205.974 173.831 253.658 172.546 257.867C171.973 259.076 171.782 260.431 171.998 261.751C172.213 263.071 172.826 264.294 173.754 265.259L197.522 295.517C201.068 299.581 203.932 304.191 206.002 309.17C207.044 311.727 207.495 314.485 207.321 317.24C207.148 319.995 206.354 322.676 205 325.082C200.58 331.755 190.995 331.703 184.803 327.058C187.659 337.004 189.518 347.208 190.353 357.521C190.7 361.403 190.254 365.314 189.043 369.019C187.926 372.209 186.179 375.141 183.904 377.642C180.808 380.989 177.067 383.678 172.906 385.547C167.936 388.408 162.404 390.159 156.692 390.68C148.987 391.343 141.322 389.018 135.287 384.187C123.339 374.306 121.386 358.266 120.975 353.98C117.387 356.999 112.818 358.605 108.127 358.497C102.851 358.087 97.9358 355.66 94.4058 351.721C92.1648 349.608 90.3693 347.069 89.1249 344.252C87.8805 341.436 87.2124 338.4 87.1596 335.322C87.3909 329.034 92.1189 322.823 97.7976 323.106C85.3095 318.537 76.83 308.143 76.9585 297.929C77.1126 285.097 90.9112 275.909 94.2002 273.728C101.575 268.826 103.682 270.905 107.716 266.644C114.243 259.715 111.776 250.887 114.5 233.255Z" fill="#6F42C1"/>
<path d="M98.4917 260.921C134.003 262.153 127.862 259.125 152.735 263.488C159.699 264.72 190.148 265.49 196.803 267.286C205.778 260.087 215.629 254.05 226.122 249.321C230.721 247.242 238.122 245.343 237.89 244.881C237.659 244.419 236.092 246.19 236.117 246.37C236.349 249.116 232.803 278.861 229.308 288.279C224.4 301.573 208.058 305.628 194.722 308.811C167.433 315.586 143.51 305.243 135.622 301.111C129.738 298.109 124.136 294.644 118.02 292.001C106.637 287.073 96.6159 277.937 84.0508 275.986C84.7266 273.978 85.5868 272.036 86.6203 270.186C88.8559 266.593 90.0636 263.898 92.7873 262.256C94.5247 261.283 96.5023 260.82 98.4917 260.921Z" fill="#B196ED"/>
<path d="M74.5174 214.546C75.5709 214.187 79.0398 221.039 78.5516 221.347C78.0634 221.655 70.8429 202.638 54.3977 196.068C53.6782 195.786 37.6442 189.498 28.7021 197.967C23.563 202.766 22.0213 210.311 22.6894 217.241C23.7531 224.143 25.6246 230.896 28.2653 237.362C30.134 241.874 30.9172 246.761 30.5522 251.631C29.1647 260.767 20.9421 267.286 12.848 271.7C9.87576 273.18 7.11122 275.044 4.62536 277.244C2.00796 280.002 0.406847 283.567 0.0846884 287.353C-0.23747 291.14 0.738458 294.923 2.85237 298.083C5.15067 301.105 8.40771 303.258 12.0906 304.19C15.7735 305.123 19.6642 304.779 23.1262 303.216C16.9592 306.937 17.6273 316.844 22.6894 321.951C27.7514 327.058 35.3059 328.598 42.4493 329.65C44.272 330.022 46.1511 330.022 47.9738 329.65C52.1108 328.521 53.3442 323.106 54.2949 320.18C57.9437 308.888 61.3869 309.658 65.1385 299.649C68.7397 289.249 69.5025 278.078 67.3483 267.286C64.2391 249.321 55.8367 245.292 57.7638 231.099C58.5604 225.376 60.9758 218.267 64.8301 217.574C68.6845 216.881 71.9478 222.22 73.7465 221.09C75.5452 219.961 73.6951 214.854 74.5174 214.546Z" fill="#B196ED"/>
<path d="M351.146 144.739C351.146 144.739 342.332 159.599 351.146 167.042C354.563 169.942 355.309 172.174 354.975 173.689C354.641 175.203 351.146 177.179 351.146 177.179C351.146 177.179 349.913 183.184 349.604 184.878C348.843 190.06 349.372 195.349 351.146 200.277C351.146 200.277 336.243 229.354 355.206 235.437V215.727C355.206 215.727 383.625 234.667 397.167 206.949C410.708 179.232 400.559 156.904 382.263 156.237C370.966 155.631 360.118 151.622 351.146 144.739Z" fill="#B196ED"/>
<path d="M123.574 170.657L108.325 165.353C111.419 161.817 117.475 155.938 116.944 160.712C116.414 165.485 121.143 169.331 123.574 170.657Z" fill="white"/>
</g>
<ellipse cx="134" cy="132" rx="18" ry="18" transform="rotate(-180 134 132)" fill="#B7A0E0"/>
<ellipse cx="135" cy="127" rx="7" ry="7" transform="rotate(-180 135 127)" fill="white"/>
<ellipse cx="134.5" cy="144" rx="12.5" ry="12" transform="rotate(-180 134.5 144)" fill="white"/>
<defs>
<clipPath id="clip0_84_756">
<rect width="494.383" height="314.079" fill="white" transform="translate(0 121)"/>
</clipPath>
</defs>
</svg>
