<svg width="1442" height="812" viewBox="0 0 1442 812" fill="none" xmlns="http://www.w3.org/2000/svg">
<rect opacity="0.1" x="1" width="1441" height="802" fill="#C3A3FF"/>
<mask id="mask0_133_72" style="mask-type:alpha" maskUnits="userSpaceOnUse" x="0" y="0" width="1441" height="802">
<rect width="1441" height="802" fill="#C3A3FF"/>
</mask>
<g mask="url(#mask0_133_72)">
<path d="M219.862 39.4598L512.301 331.899L318.161 526.039L640.09 847.968L993.966 494.092H810.884V274.148L993.966 91.0667L708.899 -194V39.4598L262.868 274.148L183 795.132L581.11 609.593L1071.38 795.132L1252 331.899L1071.38 274.148" stroke="#C3A3FF" stroke-width="0.5"/>
</g>
<circle opacity="0.2" cx="388" cy="205" r="21" fill="#C3A3FF"/>
<circle cx="388" cy="205" r="10.5" fill="#C3A3FF" fill-opacity="0.9"/>
<circle opacity="0.2" cx="183" cy="796" r="16" fill="#C3A3FF"/>
<circle cx="183" cy="796" r="8" fill="#C3A3FF" fill-opacity="0.9"/>
<circle opacity="0.2" cx="459" cy="667" r="9" fill="#C3A3FF"/>
<circle cx="459" cy="667" r="4.5" fill="#C3A3FF" fill-opacity="0.9"/>
<circle opacity="0.2" cx="708" cy="40" r="9" fill="#C3A3FF"/>
<circle cx="708" cy="40" r="4.5" fill="#C3A3FF" fill-opacity="0.9"/>
<circle opacity="0.2" cx="219" cy="38" r="9" fill="#C3A3FF"/>
<circle cx="219" cy="38" r="4.5" fill="#C3A3FF" fill-opacity="0.9"/>
<circle opacity="0.2" cx="1071" cy="795" r="15" fill="#C3A3FF"/>
<circle cx="1071" cy="795" r="7.5" fill="#C3A3FF" fill-opacity="0.9"/>
<circle opacity="0.2" cx="1071" cy="795" r="15" fill="#C3A3FF"/>
<circle cx="1071" cy="795" r="7.5" fill="#C3A3FF" fill-opacity="0.9"/>
</svg>
